<svg xmlns="http://www.w3.org/2000/svg" id="mainsvg" width="849.0235900878906" height="324.51562499999994" viewBox="-18 -10 849.0235900878906 324.51562499999994"><defs><marker id="arrow" viewBox="0 0 10 10" refX="10" refY="5" markerWidth="5" markerHeight="5" orient="auto-start-reverse" fill="#3D9911"><path stroke="#3D9911" d="M 0 0 L 10 5 L 0 10 z"/></marker><marker id="Many" viewBox="0 0 16 16" refX="15" refY="8" markerWidth="15" markerHeight="15" orient="auto-start-reverse"><path stroke="#3D9911" d="M0 8H15M15 15L2 8L15 1" fill="none"/></marker><marker id="ZeroOrOne" viewBox="0 0 16 10" refX="15" refY="5" markerWidth="21" markerHeight="21" orient="auto-start-reverse"><path d="M9 5H16" stroke="#3D9911" fill="none"/><circle cx="5" cy="5" r="4.5" stroke="#3D9911" fill="#fff"/><path d="M12 0L12 10" stroke="#3D9911" fill="none"/></marker><marker id="OneOnlyOne" viewBox="0 0 10 14" refX="10" refY="7" markerWidth="13" markerHeight="13" orient="auto-start-reverse"><path d="M0 7H4M4 7H7M4 7V0M4 7V14M7 7H10M7 7V0M7 7V14" stroke="#3D9911" fill="none"/></marker><marker id="OneOrMany" viewBox="0 0 16 16" refX="15" refY="8" markerWidth="15" markerHeight="15" orient="auto-start-reverse"><path stroke="#3D9911" d="M2 1V15M2 8L15 15M2 8L15 1M2 8H0M2 8H15" fill="none"/></marker><marker id="ZeroOrMany" viewBox="0 0 25 16" refX="23" refY="8" markerWidth="25" markerHeight="25" orient="auto-start-reverse"><path d="M13 8H27M27 15L14 8L27 1" stroke="#3D9911" fill="none"/><path d="M13.5 7.5C13.5 10.7795 10.6254 13.5 7 13.5C3.37461 13.5 0.5 10.7795 0.5 7.5C0.5 4.22054 3.37461 1.5 7 1.5C10.6254 1.5 13.5 4.22054 13.5 7.5Z" stroke="#3D9911" fill="#fff"/></marker><marker id="aggregation" viewBox="0 0 10 6" refX="9.3" refY="2.8" markerWidth="23" markerHeight="15" orient="auto-start-reverse"><path stroke="#3D9911" fill="#fff" stroke-width="0.7" d="M1.01614 2.82609L5 0.574341L8.98386 2.82609L5 5.07783L1.01614 2.82609Z"/></marker><marker id="composition" viewBox="0 0 10 6" refX="9.7" refY="2.8" markerWidth="18" markerHeight="15" orient="auto-start-reverse"><path stroke="#3D9911" fill="#3D9911" d="M1.01614 2.82609L5 0.574341L8.98386 2.82609L5 5.07783L1.01614 2.82609Z"/></marker><marker id="implementation" viewBox="0 0 8 10" refX="8" refY="5" markerWidth="20" markerHeight="20" orient="auto-start-reverse"><path stroke="#3D9911" fill="#fff" stroke-width="0.7" d="M0.750001 1.10289L7.5 5L0.750001 8.89712L0.750001 1.10289Z"/></marker><marker id="dependency" viewBox="0 0 12 12" refX="11" refY="6" markerWidth="12" markerHeight="11" orient="auto-start-reverse"><path stroke="#3D9911" fill="#fff" d="M1 5.93162H10.886M10.886 5.93162L1 0.5M10.886 5.93162L1 11"/></marker><marker id="inheritance" viewBox="0 0 8 10" refX="8" refY="5" markerWidth="20" markerHeight="20" orient="auto-start-reverse"><path stroke="#3D9911" fill="#fff" stroke-width="0.7" d="M0.750001 1.10289L7.5 5L0.750001 8.89712L0.750001 1.10289Z"/></marker><marker id="association" viewBox="0 0 12 12" refX="11" refY="6" markerWidth="12" markerHeight="11" orient="auto-start-reverse"><path stroke="#3D9911" d="M1 5.93162H10.886M10.886 5.93162L1 0.5M10.886 5.93162L1 11"/></marker><filter id="shadowOLD" x="-50%" y="-50%" width="250%" height="250%"><feDropShadow flood-color="black" flood-opacity="0.3" dx="1" dy="1" stdDeviation="2"> </feDropShadow></filter><filter id="shadow-path" filterUnits="userSpaceOnUse" x="-18" y="-10" width="849.0235900878906px" height="314.51562499999994px"><feDropShadow flood-color="black" flood-opacity="0.1" dx="1" dy="1" stdDeviation="1"> </feDropShadow></filter><filter id="shadow" filterUnits="userSpaceOnUse" x="-18" y="-10" width="949.0235900878906px" height="414.51562499999994px"><feDropShadow flood-color="black" flood-opacity="0.1" dx="1" dy="1" stdDeviation="1"> </feDropShadow></filter></defs><rect x="-18" y="-10" width="849.0235900878906" height="314.51562499999994" fill="#fff"/><path transform="rotate(0,0, 0) scale(1)" d="M720.5388048661333,237.35624999999996L728.7542103539394,231.9263020833333C736.9696158417452,226.49635416666663,753.400426817357,215.6364583333333,761.6158323051628,200.31666666666663C769.8312377929688,184.99687499999996,769.8312377929688,165.2171875,769.8312377929688,145.4375C769.8312377929688,125.65781249999999,769.8312377929688,105.878125,718.2840525309244,87.74060944688615C666.7368672688802,69.60309389377234,563.6424967447916,53.10775028754466,512.0953114827474,44.86007848443083L460.5481262207031,36.61240668131699" stroke="#3D9911" stroke-dasharray="none" stroke-width="1.4" fill="none" marker-end="url(#arrow)" filter="url(#shadow-path)"/><g transform="translate(718.6388854980469, 129.8578125)"><rect width="102.38470458984375" height="31.159375" stroke="none" fill="#fff" stroke-width="0" transform="translate(0, 0)" rx="5"/><g transform="translate(4, 4)"><g transform="translate(0, 0)"><rect width="94.38470458984375" height="23.159375" stroke="none" fill="#fff" stroke-width="0" transform="translate(0, 0)" rx="2"/><text fill="#3D9911" font-size="14" font-weight="normal" transform="translate(4, 4)" alignment-baseline="middle" font-family="Arial"><tspan x="0" dy="14" font-family="Arial" font-size="14" font-weight="normal">Order product</tspan></text></g></g></g><path transform="rotate(0,0, 0) scale(1)" d="M337.3870544433594,36.97423803192737L288.0293273925781,45.161604609939474C238.67160034179688,53.34897118795158,139.95614624023438,69.7237043439758,90.59841918945312,87.80091467198788C41.240692138671875,105.878125,41.240692138671875,125.65781249999999,41.240692138671875,145.4375C41.240692138671875,165.2171875,41.240692138671875,184.99687499999996,45.19194494895239,201.28671874999998C49.14319775923291,217.5765625,57.04570337979394,230.37656249999998,60.99695619007446,236.77656249999998L64.94820900035498,243.17656249999996" stroke="#3D9911" stroke-dasharray="none" stroke-width="1.4" fill="none" marker-end="url(#arrow)" filter="url(#shadow-path)"/><g transform="translate(-8, 129.8578125)"><rect width="98.48138427734375" height="31.159375" stroke="none" fill="#fff" stroke-width="0" transform="translate(0, 0)" rx="5"/><g transform="translate(4, 4)"><g transform="translate(0, 0)"><rect width="90.48138427734375" height="23.159375" stroke="none" fill="#fff" stroke-width="0" transform="translate(0, 0)" rx="2"/><text fill="#3D9911" font-size="14" font-weight="normal" transform="translate(4, 4)" alignment-baseline="middle" font-family="Arial"><tspan x="0" dy="14" font-family="Arial" font-size="14" font-weight="normal">Order Details</tspan></text></g></g></g><path transform="rotate(0,0, 0) scale(1)" d="M337.3870544433594,49.65401849704024L321.0494130452474,55.72808833086686C304.71177164713544,61.8021581646935,272.03648885091144,73.95029783234675,255.69884745279947,85.45431558284004C239.3612060546875,96.95833333333333,239.3612060546875,107.81822916666665,239.3612060546875,113.24817708333335L239.3612060546875,118.678125" stroke="#3D9911" stroke-dasharray="none" stroke-width="1.4" fill="none" marker-end="url(#arrow)" filter="url(#shadow-path)"/><g transform="translate(190.12051391601562, 70.51875)"><rect width="98.48138427734375" height="31.159375" stroke="none" fill="#fff" stroke-width="0" transform="translate(0, 0)" rx="5"/><g transform="translate(4, 4)"><g transform="translate(0, 0)"><rect width="90.48138427734375" height="23.159375" stroke="none" fill="#fff" stroke-width="0" transform="translate(0, 0)" rx="2"/><text fill="#3D9911" font-size="14" font-weight="normal" transform="translate(4, 4)" alignment-baseline="middle" font-family="Arial"><tspan x="0" dy="14" font-family="Arial" font-size="14" font-weight="normal">Order Details</tspan></text></g></g></g><path transform="rotate(0,0, 0) scale(1)" d="M239.3612060546875,172.196875L239.3612060546875,177.62682291666667C239.3612060546875,183.05677083333333,239.3612060546875,193.91666666666666,303.2370376586914,208.26708751298133C367.1128692626953,222.617508359296,494.8645324707031,240.458454218592,558.740364074707,249.37892714824002L622.6161956787109,258.29940007788804" stroke="#3D9911" stroke-dasharray="none" stroke-width="1.4" fill="none" marker-end="url(#arrow)" filter="url(#shadow-path)"/><g transform="translate(184.27578735351562, 189.19687499999998)"><rect width="110.17083740234375" height="31.159375" stroke="none" fill="#fff" stroke-width="0" transform="translate(0, 0)" rx="5"/><g transform="translate(4, 4)"><g transform="translate(0, 0)"><rect width="102.17083740234375" height="23.159375" stroke="none" fill="#fff" stroke-width="0" transform="translate(0, 0)" rx="2"/><text fill="#3D9911" font-size="14" font-weight="normal" transform="translate(4, 4)" alignment-baseline="middle" font-family="Arial"><tspan x="0" dy="14" font-family="Arial" font-size="14" font-weight="normal">Ordered Books</tspan></text></g></g></g><path transform="rotate(0,0, 0) scale(1)" d="M460.5481262207031,45.56661271349037L482.6670176188151,52.321916844575306C504.78590901692706,59.077220975660246,549.023691813151,72.58782923783012,571.1425832112631,84.77308128558172C593.261474609375,96.95833333333333,593.261474609375,107.81822916666665,593.261474609375,113.24817708333335L593.261474609375,118.678125" stroke="#3D9911" stroke-dasharray="none" stroke-width="1.4" fill="none" marker-end="url(#arrow)" filter="url(#shadow-path)"/><g transform="translate(545.1828918457031, 70.51875)"><rect width="96.15716552734375" height="31.159375" stroke="none" fill="#fff" stroke-width="0" transform="translate(0, 0)" rx="5"/><g transform="translate(4, 4)"><g transform="translate(0, 0)"><rect width="88.15716552734375" height="23.159375" stroke="none" fill="#fff" stroke-width="0" transform="translate(0, 0)" rx="2"/><text fill="#3D9911" font-size="14" font-weight="normal" transform="translate(4, 4)" alignment-baseline="middle" font-family="Arial"><tspan x="0" dy="14" font-family="Arial" font-size="14" font-weight="normal">Invalid Order</tspan></text></g></g></g><path transform="rotate(0,0, 0) scale(1)" d="M593.261474609375,172.196875L593.261474609375,177.62682291666667C593.261474609375,183.05677083333333,593.261474609375,193.91666666666666,600.7225638167009,204.77656249999998C608.183653024027,215.6364583333333,623.1058314386789,226.49635416666663,630.5669206460049,231.92630208333333L638.0280098533309,237.35624999999996" stroke="#3D9911" stroke-dasharray="none" stroke-width="1.4" fill="none" marker-end="url(#arrow)" filter="url(#shadow-path)"/><g transform="translate(548.6863098144531, 189.19687499999998)"><rect width="89.15032958984375" height="31.159375" stroke="none" fill="#fff" stroke-width="0" transform="translate(0, 0)" rx="5"/><g transform="translate(4, 4)"><g transform="translate(0, 0)"><rect width="81.15032958984375" height="23.159375" stroke="none" fill="#fff" stroke-width="0" transform="translate(0, 0)" rx="2"/><text fill="#3D9911" font-size="14" font-weight="normal" transform="translate(4, 4)" alignment-baseline="middle" font-family="Arial"><tspan x="0" dy="14" font-family="Arial" font-size="14" font-weight="normal">Clarification</tspan></text></g></g></g><path transform="rotate(0,0, 0) scale(1)" d="M509.8840637207031,155.82050904133553L444.36309305826825,163.97985128444626C378.8421223958333,172.139193527557,247.80018107096353,188.45787801377847,178.3279575982481,203.01722025688923C108.85573412553272,217.5765625,100.95322850497168,230.37656249999998,97.00197569469117,236.77656249999998L93.05072288441065,243.17656249999996" stroke="#3D9911" stroke-dasharray="none" stroke-width="1.4" fill="none" marker-end="url(#arrow)" filter="url(#shadow-path)"/><g transform="translate(53.240692138671875, 189.19687499999998)"><rect width="127.03509521484375" height="31.159375" stroke="none" fill="#fff" stroke-width="0" transform="translate(0, 0)" rx="5"/><g transform="translate(4, 4)"><g transform="translate(0, 0)"><rect width="119.03509521484375" height="23.159375" stroke="none" fill="#fff" stroke-width="0" transform="translate(0, 0)" rx="2"/><text fill="#3D9911" font-size="14" font-weight="normal" transform="translate(4, 4)" alignment-baseline="middle" font-family="Arial"><tspan x="0" dy="14" font-family="Arial" font-size="14" font-weight="normal">Valid order details</tspan></text></g></g></g><path transform="rotate(0,0, 0) scale(1)" d="M398.96759033203125,53.51875L398.96759033203125,58.94869791666667C398.96759033203125,64.37864583333334,398.96759033203125,75.23854166666666,398.96759033203125,86.76510416666667C398.96759033203125,98.29166666666667,398.96759033203125,110.48489583333333,398.96759033203125,116.58151041666667L398.96759033203125,122.678125" stroke="#3D9911" stroke-dasharray="none" stroke-width="1.4" fill="none" marker-end="url(#arrow)" filter="url(#shadow-path)"/><g transform="translate(331.9534606933594, 70.51875)"><rect width="134.02825927734375" height="31.159375" stroke="none" fill="#fff" stroke-width="0" transform="translate(0, 0)" rx="5"/><g transform="translate(4, 4)"><g transform="translate(0, 0)"><rect width="126.02825927734375" height="23.159375" stroke="none" fill="#fff" stroke-width="0" transform="translate(0, 0)" rx="2"/><text fill="#3D9911" font-size="14" font-weight="normal" transform="translate(4, 4)" alignment-baseline="middle" font-family="Arial"><tspan x="0" dy="14" font-family="Arial" font-size="14" font-weight="normal">Valid customer info</tspan></text></g></g></g><g transform="translate(337.3870544433594, 0)"><g transform="translate(0, 0)"><rect width="123.16107177734375" height="53.51875" stroke="#3D9911" fill="#fff" stroke-width="1.4" transform="translate(0, 0)" rx="10"/><g transform="translate(0, 0)"><g transform="translate(0, 0)"><rect width="10" height="1" stroke="black" fill="none" stroke-width="0" transform="translate(20.241531372070312, 7.6796875)" rx="2"/><g transform="translate(10, 0)"><rect width="10.241531372070312" height="16.359375" stroke="black" fill="none" stroke-width="0" transform="translate(0, 0)" rx="2"/><text fill="#3D9911" font-size="11.2" font-weight="normal" transform="translate(2, 2)" alignment-baseline="middle" font-family="Arial"><tspan x="0" dy="11.2" font-family="Arial" font-size="11.2" font-weight="normal">1</tspan></text></g><rect width="10" height="1" stroke="black" fill="none" stroke-width="0" transform="translate(20.241531372070312, 7.6796875)" rx="2"/><g transform="translate(30.241531372070312, 0)"><path d="M 0,0 L 0 16.359375" fill="none" stroke="#3D9911" stroke-dasharray="none" stroke-width="1.4"/></g></g><g transform="translate(0, 16.359375)"><path d="M 0,0 L 123.16107177734375 0" fill="none" stroke="#3D9911" stroke-dasharray="none" stroke-width="1.4"/></g><g transform="translate(0, 16.359375)"><rect width="123.16107177734375" height="37.159375" stroke="black" fill="none" stroke-width="0" transform="translate(0, 0)" rx="2"/><text fill="#3D9911" font-size="16" font-weight="normal" transform="translate(10, 9.999999999999998)" alignment-baseline="middle" font-family="Arial"><tspan x="0" dy="16" font-family="Arial" font-size="16" font-weight="normal">Receive Order</tspan></text></g></g></g></g><g transform="translate(622.6161956787109, 237.35624999999996)"><rect width="109.36419677734375" height="57.159375" stroke="#3D9911" fill="#fff" stroke-width="1.4" transform="translate(0, 0)" rx="2"/><text fill="#3D9911" font-size="16" font-weight="normal" transform="translate(20, 20)" alignment-baseline="middle" font-family="Arial"><tspan x="0" dy="16" font-family="Arial" font-size="16" font-weight="normal">Customer</tspan></text></g><g transform="translate(48.54393005371094, 243.17656249999996)"><g transform="translate(0, 0)"><g transform="translate(0, 0)"><rect width="28.329803466796875" height="16.359375" stroke="#3D9911" fill="#fff" stroke-width="1.4" transform="translate(0, 0)" rx="2"/><g transform="translate(0, 0)"><rect width="5" height="1" stroke="black" fill="none" stroke-width="0" transform="translate(28.329803466796875, 7.6796875)" rx="2"/><g transform="translate(5, 0)"><rect width="18.329803466796875" height="16.359375" stroke="#3D9911" fill="none" stroke-width="0" transform="translate(0, 0)" rx="2"/><text fill="#3D9911" font-size="11.2" font-weight="normal" transform="translate(2, 2)" alignment-baseline="middle" font-family="Arial"><tspan x="0" dy="11.2" font-family="Arial" font-size="11.2" font-weight="normal">D1</tspan></text></g><rect width="5" height="1" stroke="black" fill="none" stroke-width="0" transform="translate(28.329803466796875, 7.6796875)" rx="2"/><rect width="5" height="1" stroke="black" fill="none" stroke-width="0" transform="translate(28.329803466796875, 7.6796875)" rx="2"/></g></g><g transform="translate(0, 16.359375)"><rect width="60.91107177734375" height="29.159375" stroke="black" fill="#fff" stroke-width="0" transform="translate(0, 0)" rx="2"/><text fill="#3D9911" font-size="16" font-weight="normal" transform="translate(6, 6)" alignment-baseline="middle" font-family="Arial"><tspan x="0" dy="16" font-family="Arial" font-size="16" font-weight="normal">Orders</tspan></text></g></g><rect width="60.91107177734375" height="45.51875" stroke="black" fill="#fff" stroke-width="0" transform="translate(0, 0)" rx="2"/><g transform="translate(0, 0)"><g transform="translate(0, 0)"><rect width="28.329803466796875" height="16.359375" stroke="#3D9911" fill="#fff" stroke-width="1.4" transform="translate(0, 0)" rx="2"/><g transform="translate(0, 0)"><rect width="5" height="1" stroke="black" fill="none" stroke-width="0" transform="translate(28.329803466796875, 7.6796875)" rx="2"/><g transform="translate(5, 0)"><rect width="18.329803466796875" height="16.359375" stroke="#3D9911" fill="none" stroke-width="0" transform="translate(0, 0)" rx="2"/><text fill="#3D9911" font-size="11.2" font-weight="normal" transform="translate(2, 2)" alignment-baseline="middle" font-family="Arial"><tspan x="0" dy="11.2" font-family="Arial" font-size="11.2" font-weight="normal">D1</tspan></text></g><rect width="5" height="1" stroke="black" fill="none" stroke-width="0" transform="translate(28.329803466796875, 7.6796875)" rx="2"/><rect width="5" height="1" stroke="black" fill="none" stroke-width="0" transform="translate(28.329803466796875, 7.6796875)" rx="2"/></g></g><g transform="translate(0, 16.359375)"><rect width="60.91107177734375" height="29.159375" stroke="black" fill="#fff" stroke-width="0" transform="translate(0, 0)" rx="2"/><text fill="#3D9911" font-size="16" font-weight="normal" transform="translate(6, 6)" alignment-baseline="middle" font-family="Arial"><tspan x="0" dy="16" font-family="Arial" font-size="16" font-weight="normal">Orders</tspan></text></g></g><path d="M 60.91107177734375,0 L 0 0 L 0 45.51875 L 60.91107177734375 45.51875" fill="none" stroke="#3D9911" stroke-dasharray="none" stroke-width="1.4"/></g><g transform="translate(190.67129516601562, 118.678125)"><g transform="translate(0, 0)"><rect width="97.37982177734375" height="53.51875" stroke="#3D9911" fill="#fff" stroke-width="1.4" transform="translate(0, 0)" rx="10"/><g transform="translate(0, 0)"><g transform="translate(0, 0)"><rect width="10" height="1" stroke="black" fill="none" stroke-width="0" transform="translate(20.241531372070312, 7.6796875)" rx="2"/><g transform="translate(10, 0)"><rect width="10.241531372070312" height="16.359375" stroke="black" fill="none" stroke-width="0" transform="translate(0, 0)" rx="2"/><text fill="#3D9911" font-size="11.2" font-weight="normal" transform="translate(2, 2)" alignment-baseline="middle" font-family="Arial"><tspan x="0" dy="11.2" font-family="Arial" font-size="11.2" font-weight="normal">2</tspan></text></g><rect width="10" height="1" stroke="black" fill="none" stroke-width="0" transform="translate(20.241531372070312, 7.6796875)" rx="2"/><g transform="translate(30.241531372070312, 0)"><path d="M 0,0 L 0 16.359375" fill="none" stroke="#3D9911" stroke-dasharray="none" stroke-width="1.4"/></g></g><g transform="translate(0, 16.359375)"><path d="M 0,0 L 97.37982177734375 0" fill="none" stroke="#3D9911" stroke-dasharray="none" stroke-width="1.4"/></g><g transform="translate(0, 16.359375)"><rect width="97.37982177734375" height="37.159375" stroke="black" fill="none" stroke-width="0" transform="translate(0, 0)" rx="2"/><text fill="#3D9911" font-size="16" font-weight="normal" transform="translate(10, 9.999999999999998)" alignment-baseline="middle" font-family="Arial"><tspan x="0" dy="16" font-family="Arial" font-size="16" font-weight="normal">Ship Order</tspan></text></g></g></g></g><g transform="translate(509.8840637207031, 118.678125)"><g transform="translate(0, 0)"><rect width="166.75482177734375" height="53.51875" stroke="#3D9911" fill="#fff" stroke-width="1.4" transform="translate(0, 0)" rx="10"/><g transform="translate(0, 0)"><g transform="translate(0, 0)"><rect width="10" height="1" stroke="black" fill="none" stroke-width="0" transform="translate(20.241531372070312, 7.6796875)" rx="2"/><g transform="translate(10, 0)"><rect width="10.241531372070312" height="16.359375" stroke="black" fill="none" stroke-width="0" transform="translate(0, 0)" rx="2"/><text fill="#3D9911" font-size="11.2" font-weight="normal" transform="translate(2, 2)" alignment-baseline="middle" font-family="Arial"><tspan x="0" dy="11.2" font-family="Arial" font-size="11.2" font-weight="normal">3</tspan></text></g><rect width="10" height="1" stroke="black" fill="none" stroke-width="0" transform="translate(20.241531372070312, 7.6796875)" rx="2"/><g transform="translate(30.241531372070312, 0)"><path d="M 0,0 L 0 16.359375" fill="none" stroke="#3D9911" stroke-dasharray="none" stroke-width="1.4"/></g></g><g transform="translate(0, 16.359375)"><path d="M 0,0 L 166.75482177734375 0" fill="none" stroke="#3D9911" stroke-dasharray="none" stroke-width="1.4"/></g><g transform="translate(0, 16.359375)"><rect width="166.75482177734375" height="37.159375" stroke="black" fill="none" stroke-width="0" transform="translate(0, 0)" rx="2"/><text fill="#3D9911" font-size="16" font-weight="normal" transform="translate(10, 9.999999999999998)" alignment-baseline="middle" font-family="Arial"><tspan x="0" dy="16" font-family="Arial" font-size="16" font-weight="normal">Handle Invalid Order</tspan></text></g></g></g></g><g transform="translate(368.0511169433594, 122.678125)"><g transform="translate(0, 0)"><g transform="translate(0, 0)"><rect width="28.329803466796875" height="16.359375" stroke="#3D9911" fill="#fff" stroke-width="1.4" transform="translate(0, 0)" rx="2"/><g transform="translate(0, 0)"><rect width="5" height="1" stroke="black" fill="none" stroke-width="0" transform="translate(28.329803466796875, 7.6796875)" rx="2"/><g transform="translate(5, 0)"><rect width="18.329803466796875" height="16.359375" stroke="#3D9911" fill="none" stroke-width="0" transform="translate(0, 0)" rx="2"/><text fill="#3D9911" font-size="11.2" font-weight="normal" transform="translate(2, 2)" alignment-baseline="middle" font-family="Arial"><tspan x="0" dy="11.2" font-family="Arial" font-size="11.2" font-weight="normal">D2</tspan></text></g><rect width="5" height="1" stroke="black" fill="none" stroke-width="0" transform="translate(28.329803466796875, 7.6796875)" rx="2"/><rect width="5" height="1" stroke="black" fill="none" stroke-width="0" transform="translate(28.329803466796875, 7.6796875)" rx="2"/></g></g><g transform="translate(0, 16.359375)"><rect width="61.83294677734375" height="29.159375" stroke="black" fill="#fff" stroke-width="0" transform="translate(0, 0)" rx="2"/><text fill="#3D9911" font-size="16" font-weight="normal" transform="translate(6, 6)" alignment-baseline="middle" font-family="Arial"><tspan x="0" dy="16" font-family="Arial" font-size="16" font-weight="normal">People</tspan></text></g></g><rect width="61.83294677734375" height="45.51875" stroke="black" fill="#fff" stroke-width="0" transform="translate(0, 0)" rx="2"/><g transform="translate(0, 0)"><g transform="translate(0, 0)"><rect width="28.329803466796875" height="16.359375" stroke="#3D9911" fill="#fff" stroke-width="1.4" transform="translate(0, 0)" rx="2"/><g transform="translate(0, 0)"><rect width="5" height="1" stroke="black" fill="none" stroke-width="0" transform="translate(28.329803466796875, 7.6796875)" rx="2"/><g transform="translate(5, 0)"><rect width="18.329803466796875" height="16.359375" stroke="#3D9911" fill="none" stroke-width="0" transform="translate(0, 0)" rx="2"/><text fill="#3D9911" font-size="11.2" font-weight="normal" transform="translate(2, 2)" alignment-baseline="middle" font-family="Arial"><tspan x="0" dy="11.2" font-family="Arial" font-size="11.2" font-weight="normal">D2</tspan></text></g><rect width="5" height="1" stroke="black" fill="none" stroke-width="0" transform="translate(28.329803466796875, 7.6796875)" rx="2"/><rect width="5" height="1" stroke="black" fill="none" stroke-width="0" transform="translate(28.329803466796875, 7.6796875)" rx="2"/></g></g><g transform="translate(0, 16.359375)"><rect width="61.83294677734375" height="29.159375" stroke="black" fill="#fff" stroke-width="0" transform="translate(0, 0)" rx="2"/><text fill="#3D9911" font-size="16" font-weight="normal" transform="translate(6, 6)" alignment-baseline="middle" font-family="Arial"><tspan x="0" dy="16" font-family="Arial" font-size="16" font-weight="normal">People</tspan></text></g></g><path d="M 61.83294677734375,0 L 0 0 L 0 45.51875 L 61.83294677734375 45.51875" fill="none" stroke="#3D9911" stroke-dasharray="none" stroke-width="1.4"/></g></svg>